<mxfile host="Electron" modified="2024-03-12T20:12:17.896Z" agent="Mozilla/5.0 (Windows NT 10.0; Win64; x64) AppleWebKit/537.36 (KHTML, like Gecko) draw.io/23.1.5 Chrome/120.0.6099.109 Electron/28.1.0 Safari/537.36" etag="KZKYZWddq1zyeC1WK8yn" version="23.1.5" type="device">
  <diagram name="Страница — 1" id="4c29RNRdUP_Loz52Y8jb">
    <mxGraphModel dx="2062" dy="740" grid="1" gridSize="10" guides="1" tooltips="1" connect="1" arrows="1" fold="1" page="1" pageScale="1" pageWidth="827" pageHeight="1169" math="0" shadow="0">
      <root>
        <mxCell id="0" />
        <mxCell id="1" parent="0" />
        <mxCell id="G9CLyLBNerquvoPNeNlz-1" value="" style="swimlane;startSize=0;dashed=1;" parent="1" vertex="1">
          <mxGeometry x="40" y="350" width="1680" height="950" as="geometry">
            <mxRectangle x="30" y="420" width="50" height="40" as="alternateBounds" />
          </mxGeometry>
        </mxCell>
        <mxCell id="G9CLyLBNerquvoPNeNlz-8" value="Web сайт" style="swimlane;whiteSpace=wrap;html=1;" parent="G9CLyLBNerquvoPNeNlz-1" vertex="1">
          <mxGeometry x="14.25" y="30" width="825.75" height="220" as="geometry">
            <mxRectangle x="240" y="170" width="140" height="30" as="alternateBounds" />
          </mxGeometry>
        </mxCell>
        <mxCell id="G9CLyLBNerquvoPNeNlz-9" value="&lt;div style=&quot;font-family: Consolas, &amp;quot;Courier New&amp;quot;, monospace; font-size: 14px; line-height: 19px;&quot;&gt;UI Обучающегося&lt;/div&gt;" style="rounded=1;whiteSpace=wrap;html=1;fontColor=default;labelBackgroundColor=default;" parent="G9CLyLBNerquvoPNeNlz-8" vertex="1">
          <mxGeometry x="40" y="60" width="120" height="60" as="geometry" />
        </mxCell>
        <mxCell id="G9CLyLBNerquvoPNeNlz-10" value="&lt;div style=&quot;font-family: Consolas, &amp;quot;Courier New&amp;quot;, monospace; font-size: 14px; line-height: 19px;&quot;&gt;UI Администратора&lt;/div&gt;" style="rounded=1;whiteSpace=wrap;html=1;fontColor=default;labelBackgroundColor=default;" parent="G9CLyLBNerquvoPNeNlz-8" vertex="1">
          <mxGeometry x="540" y="60" width="120" height="60" as="geometry" />
        </mxCell>
        <mxCell id="G9CLyLBNerquvoPNeNlz-11" value="&lt;div style=&quot;font-family: Consolas, &amp;quot;Courier New&amp;quot;, monospace; font-size: 14px; line-height: 19px;&quot;&gt;UI Пользователя&lt;/div&gt;&lt;div style=&quot;font-family: Consolas, &amp;quot;Courier New&amp;quot;, monospace; font-size: 14px; line-height: 19px;&quot;&gt;(учетка)&lt;/div&gt;" style="rounded=1;whiteSpace=wrap;html=1;fontColor=default;labelBackgroundColor=default;" parent="G9CLyLBNerquvoPNeNlz-8" vertex="1">
          <mxGeometry x="204" y="60" width="120" height="60" as="geometry" />
        </mxCell>
        <mxCell id="G9CLyLBNerquvoPNeNlz-12" value="&lt;div style=&quot;font-family: Consolas, &amp;quot;Courier New&amp;quot;, monospace; font-size: 14px; line-height: 19px;&quot;&gt;UI Доп. упражнений&lt;/div&gt;" style="rounded=1;whiteSpace=wrap;html=1;fontColor=default;labelBackgroundColor=default;" parent="G9CLyLBNerquvoPNeNlz-8" vertex="1">
          <mxGeometry x="370" y="60" width="120" height="60" as="geometry" />
        </mxCell>
        <mxCell id="G9CLyLBNerquvoPNeNlz-18" value="SPA на базе React TypeScript" style="text;html=1;align=center;verticalAlign=middle;whiteSpace=wrap;rounded=0;" parent="G9CLyLBNerquvoPNeNlz-8" vertex="1">
          <mxGeometry x="193.38" y="30" width="304.25" height="30" as="geometry" />
        </mxCell>
        <mxCell id="G9CLyLBNerquvoPNeNlz-51" value="Разделы сайта, либо отдельные SPA?" style="text;html=1;align=center;verticalAlign=middle;whiteSpace=wrap;rounded=0;" parent="G9CLyLBNerquvoPNeNlz-8" vertex="1">
          <mxGeometry x="214.63" y="120" width="261.75" height="30" as="geometry" />
        </mxCell>
        <mxCell id="G9CLyLBNerquvoPNeNlz-65" value="Провайдеры TTS&lt;br&gt;(скорее всего библиотека JS)" style="rounded=1;whiteSpace=wrap;html=1;" parent="G9CLyLBNerquvoPNeNlz-8" vertex="1">
          <mxGeometry x="40" y="140" width="120" height="50" as="geometry" />
        </mxCell>
        <mxCell id="G9CLyLBNerquvoPNeNlz-66" value="" style="endArrow=classic;startArrow=classic;html=1;rounded=0;entryX=0.5;entryY=1;entryDx=0;entryDy=0;exitX=0.5;exitY=0;exitDx=0;exitDy=0;" parent="G9CLyLBNerquvoPNeNlz-8" source="G9CLyLBNerquvoPNeNlz-65" target="G9CLyLBNerquvoPNeNlz-9" edge="1">
          <mxGeometry width="50" height="50" relative="1" as="geometry">
            <mxPoint x="205.75" y="230" as="sourcePoint" />
            <mxPoint x="255.75" y="180" as="targetPoint" />
          </mxGeometry>
        </mxCell>
        <mxCell id="G9CLyLBNerquvoPNeNlz-69" value="" style="endArrow=classic;startArrow=classic;html=1;rounded=0;exitX=0.5;exitY=0;exitDx=0;exitDy=0;" parent="G9CLyLBNerquvoPNeNlz-8" source="G9CLyLBNerquvoPNeNlz-43" edge="1">
          <mxGeometry width="50" height="50" relative="1" as="geometry">
            <mxPoint x="-10" y="220" as="sourcePoint" />
            <mxPoint x="40" y="170" as="targetPoint" />
          </mxGeometry>
        </mxCell>
        <mxCell id="YbVzIjHWIAAiJd0-2yNt-5" value="" style="endArrow=classic;startArrow=classic;html=1;rounded=0;" parent="G9CLyLBNerquvoPNeNlz-8" edge="1">
          <mxGeometry width="50" height="50" relative="1" as="geometry">
            <mxPoint x="95.75" y="310" as="sourcePoint" />
            <mxPoint x="95.75" y="190" as="targetPoint" />
          </mxGeometry>
        </mxCell>
        <mxCell id="YbVzIjHWIAAiJd0-2yNt-6" value="gRPC" style="edgeLabel;html=1;align=center;verticalAlign=middle;resizable=0;points=[];" parent="YbVzIjHWIAAiJd0-2yNt-5" vertex="1" connectable="0">
          <mxGeometry x="0.0702" relative="1" as="geometry">
            <mxPoint y="-2" as="offset" />
          </mxGeometry>
        </mxCell>
        <mxCell id="G9CLyLBNerquvoPNeNlz-19" value="API&amp;nbsp; доступа к Хранилищу" style="swimlane;whiteSpace=wrap;html=1;" parent="G9CLyLBNerquvoPNeNlz-1" vertex="1">
          <mxGeometry x="240" y="338" width="200" height="130" as="geometry">
            <mxRectangle x="130" y="220" width="200" height="30" as="alternateBounds" />
          </mxGeometry>
        </mxCell>
        <mxCell id="G9CLyLBNerquvoPNeNlz-20" value="&lt;div style=&quot;font-family: Consolas, &amp;quot;Courier New&amp;quot;, monospace; font-size: 14px; line-height: 19px;&quot;&gt;Card.RepoApi&lt;/div&gt;" style="rounded=1;whiteSpace=wrap;html=1;fontColor=default;labelBackgroundColor=default;" parent="G9CLyLBNerquvoPNeNlz-19" vertex="1">
          <mxGeometry x="40" y="60" width="120" height="60" as="geometry" />
        </mxCell>
        <mxCell id="G9CLyLBNerquvoPNeNlz-25" value="gRPC" style="text;html=1;align=center;verticalAlign=middle;whiteSpace=wrap;rounded=0;" parent="G9CLyLBNerquvoPNeNlz-19" vertex="1">
          <mxGeometry x="70" y="30" width="60" height="30" as="geometry" />
        </mxCell>
        <mxCell id="G9CLyLBNerquvoPNeNlz-21" value="API доступа к данным пользователей" style="swimlane;whiteSpace=wrap;html=1;startSize=30;" parent="G9CLyLBNerquvoPNeNlz-1" vertex="1">
          <mxGeometry x="460" y="338" width="200" height="130" as="geometry" />
        </mxCell>
        <mxCell id="G9CLyLBNerquvoPNeNlz-22" value="&lt;div style=&quot;font-family: Consolas, &amp;quot;Courier New&amp;quot;, monospace; font-size: 14px; line-height: 19px;&quot;&gt;Card.UsersApi&lt;/div&gt;" style="rounded=1;whiteSpace=wrap;html=1;fontColor=default;labelBackgroundColor=default;" parent="G9CLyLBNerquvoPNeNlz-21" vertex="1">
          <mxGeometry x="40" y="60" width="120" height="60" as="geometry" />
        </mxCell>
        <mxCell id="G9CLyLBNerquvoPNeNlz-29" value="gRPC" style="text;html=1;align=center;verticalAlign=middle;whiteSpace=wrap;rounded=0;" parent="G9CLyLBNerquvoPNeNlz-21" vertex="1">
          <mxGeometry x="70" y="30" width="60" height="30" as="geometry" />
        </mxCell>
        <mxCell id="G9CLyLBNerquvoPNeNlz-35" value="Сервис &lt;br&gt;идентификации" style="swimlane;whiteSpace=wrap;html=1;startSize=30;" parent="G9CLyLBNerquvoPNeNlz-1" vertex="1">
          <mxGeometry x="1000" y="170" width="160" height="130" as="geometry" />
        </mxCell>
        <mxCell id="G9CLyLBNerquvoPNeNlz-36" value="Identity Server 4.0" style="rounded=1;whiteSpace=wrap;html=1;" parent="G9CLyLBNerquvoPNeNlz-35" vertex="1">
          <mxGeometry x="20" y="60" width="120" height="60" as="geometry" />
        </mxCell>
        <mxCell id="G9CLyLBNerquvoPNeNlz-37" value="API для сторонних разработчиков" style="swimlane;whiteSpace=wrap;html=1;startSize=30;" parent="G9CLyLBNerquvoPNeNlz-1" vertex="1">
          <mxGeometry x="1360" y="338" width="200" height="130" as="geometry">
            <mxRectangle x="130" y="220" width="200" height="30" as="alternateBounds" />
          </mxGeometry>
        </mxCell>
        <mxCell id="G9CLyLBNerquvoPNeNlz-38" value="&lt;div style=&quot;font-family: Consolas, &amp;quot;Courier New&amp;quot;, monospace; font-size: 14px; line-height: 19px;&quot;&gt;Card.RepoApi&lt;/div&gt;" style="rounded=1;whiteSpace=wrap;html=1;fontColor=default;labelBackgroundColor=default;" parent="G9CLyLBNerquvoPNeNlz-37" vertex="1">
          <mxGeometry x="40" y="60" width="120" height="60" as="geometry" />
        </mxCell>
        <mxCell id="G9CLyLBNerquvoPNeNlz-39" value="WebAPI" style="text;html=1;align=center;verticalAlign=middle;whiteSpace=wrap;rounded=0;" parent="G9CLyLBNerquvoPNeNlz-37" vertex="1">
          <mxGeometry x="70" y="30" width="60" height="30" as="geometry" />
        </mxCell>
        <mxCell id="G9CLyLBNerquvoPNeNlz-40" value="Сервис синтеза речи" style="swimlane;whiteSpace=wrap;html=1;startSize=23;" parent="G9CLyLBNerquvoPNeNlz-1" vertex="1">
          <mxGeometry x="14.25" y="558" width="175.75" height="130" as="geometry">
            <mxRectangle x="130" y="220" width="200" height="30" as="alternateBounds" />
          </mxGeometry>
        </mxCell>
        <mxCell id="G9CLyLBNerquvoPNeNlz-41" value="&lt;div style=&quot;font-family: Consolas, &amp;quot;Courier New&amp;quot;, monospace; font-size: 14px; line-height: 19px;&quot;&gt;&lt;div style=&quot;line-height: 19px;&quot;&gt;Card.TTS&lt;/div&gt;&lt;/div&gt;" style="rounded=1;whiteSpace=wrap;html=1;fontColor=default;labelBackgroundColor=default;" parent="G9CLyLBNerquvoPNeNlz-40" vertex="1">
          <mxGeometry x="27.88" y="60" width="120" height="60" as="geometry" />
        </mxCell>
        <mxCell id="G9CLyLBNerquvoPNeNlz-70" value="Средство для локального или удаленного синтеза речи&amp;nbsp;" style="text;html=1;align=center;verticalAlign=middle;whiteSpace=wrap;rounded=0;" parent="G9CLyLBNerquvoPNeNlz-40" vertex="1">
          <mxGeometry x="5.75" y="30" width="175.75" height="30" as="geometry" />
        </mxCell>
        <mxCell id="G9CLyLBNerquvoPNeNlz-45" value="База данных обучающих&lt;br&gt;материлов" style="swimlane;whiteSpace=wrap;html=1;startSize=30;" parent="G9CLyLBNerquvoPNeNlz-1" vertex="1">
          <mxGeometry x="210" y="680" width="200" height="230" as="geometry">
            <mxRectangle x="130" y="220" width="200" height="30" as="alternateBounds" />
          </mxGeometry>
        </mxCell>
        <mxCell id="G9CLyLBNerquvoPNeNlz-46" value="&lt;div style=&quot;font-family: Consolas, &amp;quot;Courier New&amp;quot;, monospace; font-size: 14px; line-height: 19px;&quot;&gt;RepoDB&lt;/div&gt;" style="rounded=1;whiteSpace=wrap;html=1;fontColor=default;labelBackgroundColor=default;" parent="G9CLyLBNerquvoPNeNlz-45" vertex="1">
          <mxGeometry x="40" y="60" width="120" height="60" as="geometry" />
        </mxCell>
        <mxCell id="G9CLyLBNerquvoPNeNlz-47" value="PostgresSQL" style="text;html=1;align=center;verticalAlign=middle;whiteSpace=wrap;rounded=0;" parent="G9CLyLBNerquvoPNeNlz-45" vertex="1">
          <mxGeometry x="70" y="30" width="60" height="30" as="geometry" />
        </mxCell>
        <mxCell id="YbVzIjHWIAAiJd0-2yNt-12" value="Здесь хранятся метаданные:&lt;br&gt;карточки, сценарии, текст, ссылки на файлы в Хранилище файлов,&lt;br&gt;все это привязано к Guid пользователя" style="text;html=1;align=center;verticalAlign=middle;whiteSpace=wrap;rounded=0;" parent="G9CLyLBNerquvoPNeNlz-45" vertex="1">
          <mxGeometry x="17.5" y="139" width="165" height="80" as="geometry" />
        </mxCell>
        <mxCell id="G9CLyLBNerquvoPNeNlz-48" value="База данных пользователей" style="swimlane;whiteSpace=wrap;html=1;startSize=30;" parent="G9CLyLBNerquvoPNeNlz-1" vertex="1">
          <mxGeometry x="690" y="680" width="230" height="200" as="geometry">
            <mxRectangle x="130" y="220" width="200" height="30" as="alternateBounds" />
          </mxGeometry>
        </mxCell>
        <mxCell id="G9CLyLBNerquvoPNeNlz-49" value="&lt;div style=&quot;font-family: Consolas, &amp;quot;Courier New&amp;quot;, monospace; font-size: 14px; line-height: 19px;&quot;&gt;UsersDB&lt;/div&gt;" style="rounded=1;whiteSpace=wrap;html=1;fontColor=default;labelBackgroundColor=default;" parent="G9CLyLBNerquvoPNeNlz-48" vertex="1">
          <mxGeometry x="40" y="60" width="120" height="60" as="geometry" />
        </mxCell>
        <mxCell id="G9CLyLBNerquvoPNeNlz-50" value="PostgresSQL" style="text;html=1;align=center;verticalAlign=middle;whiteSpace=wrap;rounded=0;" parent="G9CLyLBNerquvoPNeNlz-48" vertex="1">
          <mxGeometry x="70" y="30" width="60" height="30" as="geometry" />
        </mxCell>
        <mxCell id="YbVzIjHWIAAiJd0-2yNt-13" value="Здесь хранятся данные пользователей, их id. права, списки учеников и т.п.&amp;nbsp;" style="text;html=1;align=center;verticalAlign=middle;whiteSpace=wrap;rounded=0;" parent="G9CLyLBNerquvoPNeNlz-48" vertex="1">
          <mxGeometry x="30" y="130" width="170" height="70" as="geometry" />
        </mxCell>
        <mxCell id="G9CLyLBNerquvoPNeNlz-52" value="" style="endArrow=classic;startArrow=classic;html=1;rounded=0;exitX=0.5;exitY=0;exitDx=0;exitDy=0;" parent="G9CLyLBNerquvoPNeNlz-1" source="G9CLyLBNerquvoPNeNlz-40" edge="1">
          <mxGeometry width="50" height="50" relative="1" as="geometry">
            <mxPoint x="70" y="230" as="sourcePoint" />
            <mxPoint x="102" y="470" as="targetPoint" />
          </mxGeometry>
        </mxCell>
        <mxCell id="G9CLyLBNerquvoPNeNlz-58" value="RabbitMQ&lt;br&gt;синтез звуковых файлов для&amp;nbsp;&lt;br&gt;сохранения в БД" style="edgeLabel;html=1;align=center;verticalAlign=middle;resizable=0;points=[];" parent="G9CLyLBNerquvoPNeNlz-52" vertex="1" connectable="0">
          <mxGeometry x="-0.0114" relative="1" as="geometry">
            <mxPoint x="-2" y="5" as="offset" />
          </mxGeometry>
        </mxCell>
        <mxCell id="G9CLyLBNerquvoPNeNlz-53" value="" style="endArrow=classic;startArrow=classic;html=1;rounded=0;exitX=0.5;exitY=0;exitDx=0;exitDy=0;" parent="G9CLyLBNerquvoPNeNlz-1" source="G9CLyLBNerquvoPNeNlz-19" edge="1">
          <mxGeometry width="50" height="50" relative="1" as="geometry">
            <mxPoint x="338.25" y="320" as="sourcePoint" />
            <mxPoint x="340" y="250" as="targetPoint" />
          </mxGeometry>
        </mxCell>
        <mxCell id="G9CLyLBNerquvoPNeNlz-59" value="gRPC" style="edgeLabel;html=1;align=center;verticalAlign=middle;resizable=0;points=[];" parent="G9CLyLBNerquvoPNeNlz-53" vertex="1" connectable="0">
          <mxGeometry x="0.0702" relative="1" as="geometry">
            <mxPoint y="-2" as="offset" />
          </mxGeometry>
        </mxCell>
        <mxCell id="G9CLyLBNerquvoPNeNlz-54" value="" style="endArrow=classic;startArrow=classic;html=1;rounded=0;exitX=0.5;exitY=0;exitDx=0;exitDy=0;" parent="G9CLyLBNerquvoPNeNlz-1" source="G9CLyLBNerquvoPNeNlz-21" edge="1">
          <mxGeometry width="50" height="50" relative="1" as="geometry">
            <mxPoint x="559.6" y="320" as="sourcePoint" />
            <mxPoint x="559.6" y="250" as="targetPoint" />
          </mxGeometry>
        </mxCell>
        <mxCell id="G9CLyLBNerquvoPNeNlz-60" value="gRPC" style="edgeLabel;html=1;align=center;verticalAlign=middle;resizable=0;points=[];" parent="G9CLyLBNerquvoPNeNlz-54" vertex="1" connectable="0">
          <mxGeometry x="-0.0082" y="2" relative="1" as="geometry">
            <mxPoint x="2" y="-1" as="offset" />
          </mxGeometry>
        </mxCell>
        <mxCell id="G9CLyLBNerquvoPNeNlz-55" value="" style="endArrow=classic;startArrow=classic;html=1;rounded=0;exitX=0;exitY=0.5;exitDx=0;exitDy=0;" parent="G9CLyLBNerquvoPNeNlz-1" source="G9CLyLBNerquvoPNeNlz-35" edge="1">
          <mxGeometry width="50" height="50" relative="1" as="geometry">
            <mxPoint x="700" y="250" as="sourcePoint" />
            <mxPoint x="840" y="235" as="targetPoint" />
          </mxGeometry>
        </mxCell>
        <mxCell id="G9CLyLBNerquvoPNeNlz-61" value="" style="endArrow=classic;startArrow=classic;html=1;rounded=0;" parent="G9CLyLBNerquvoPNeNlz-1" edge="1">
          <mxGeometry width="50" height="50" relative="1" as="geometry">
            <mxPoint x="240" y="410" as="sourcePoint" />
            <mxPoint x="210" y="410" as="targetPoint" />
          </mxGeometry>
        </mxCell>
        <mxCell id="G9CLyLBNerquvoPNeNlz-62" value="" style="endArrow=classic;startArrow=classic;html=1;rounded=0;entryX=0.5;entryY=1;entryDx=0;entryDy=0;exitX=0.5;exitY=0;exitDx=0;exitDy=0;" parent="G9CLyLBNerquvoPNeNlz-1" source="G9CLyLBNerquvoPNeNlz-45" target="G9CLyLBNerquvoPNeNlz-19" edge="1">
          <mxGeometry width="50" height="50" relative="1" as="geometry">
            <mxPoint x="340" y="558" as="sourcePoint" />
            <mxPoint x="410" y="488" as="targetPoint" />
          </mxGeometry>
        </mxCell>
        <mxCell id="G9CLyLBNerquvoPNeNlz-63" value="" style="endArrow=classic;startArrow=classic;html=1;rounded=0;exitX=0.5;exitY=0;exitDx=0;exitDy=0;" parent="G9CLyLBNerquvoPNeNlz-1" source="G9CLyLBNerquvoPNeNlz-48" edge="1">
          <mxGeometry width="50" height="50" relative="1" as="geometry">
            <mxPoint x="490" y="528" as="sourcePoint" />
            <mxPoint x="570" y="468" as="targetPoint" />
          </mxGeometry>
        </mxCell>
        <mxCell id="G9CLyLBNerquvoPNeNlz-73" value="Nginx" style="swimlane;whiteSpace=wrap;html=1;" parent="G9CLyLBNerquvoPNeNlz-1" vertex="1">
          <mxGeometry x="960" y="30" width="200" height="110" as="geometry" />
        </mxCell>
        <mxCell id="G9CLyLBNerquvoPNeNlz-75" value="в т. ч. балансировка&lt;br&gt;нагрузки" style="text;html=1;align=center;verticalAlign=middle;whiteSpace=wrap;rounded=0;" parent="G9CLyLBNerquvoPNeNlz-73" vertex="1">
          <mxGeometry x="60" y="50" width="60" height="30" as="geometry" />
        </mxCell>
        <mxCell id="G9CLyLBNerquvoPNeNlz-74" value="" style="endArrow=classic;startArrow=classic;html=1;rounded=0;entryX=0;entryY=0.5;entryDx=0;entryDy=0;exitX=1;exitY=0.25;exitDx=0;exitDy=0;" parent="G9CLyLBNerquvoPNeNlz-1" source="G9CLyLBNerquvoPNeNlz-8" target="G9CLyLBNerquvoPNeNlz-73" edge="1">
          <mxGeometry width="50" height="50" relative="1" as="geometry">
            <mxPoint x="800" y="220" as="sourcePoint" />
            <mxPoint x="850" y="170" as="targetPoint" />
          </mxGeometry>
        </mxCell>
        <mxCell id="YbVzIjHWIAAiJd0-2yNt-1" value="API&amp;nbsp; синтеза речи" style="swimlane;whiteSpace=wrap;html=1;" parent="G9CLyLBNerquvoPNeNlz-1" vertex="1">
          <mxGeometry x="14.25" y="338" width="200" height="130" as="geometry">
            <mxRectangle x="130" y="220" width="200" height="30" as="alternateBounds" />
          </mxGeometry>
        </mxCell>
        <mxCell id="YbVzIjHWIAAiJd0-2yNt-2" value="&lt;div style=&quot;font-family: Consolas, &amp;quot;Courier New&amp;quot;, monospace; font-size: 14px; line-height: 19px;&quot;&gt;Card.TTSApi&lt;/div&gt;" style="rounded=1;whiteSpace=wrap;html=1;fontColor=default;labelBackgroundColor=default;" parent="YbVzIjHWIAAiJd0-2yNt-1" vertex="1">
          <mxGeometry x="40" y="60" width="120" height="60" as="geometry" />
        </mxCell>
        <mxCell id="YbVzIjHWIAAiJd0-2yNt-3" value="gRPC" style="text;html=1;align=center;verticalAlign=middle;whiteSpace=wrap;rounded=0;" parent="YbVzIjHWIAAiJd0-2yNt-1" vertex="1">
          <mxGeometry x="70" y="30" width="60" height="30" as="geometry" />
        </mxCell>
        <mxCell id="YbVzIjHWIAAiJd0-2yNt-7" value="Хранилище файлов" style="swimlane;whiteSpace=wrap;html=1;" parent="G9CLyLBNerquvoPNeNlz-1" vertex="1">
          <mxGeometry x="450" y="680" width="200" height="200" as="geometry" />
        </mxCell>
        <mxCell id="YbVzIjHWIAAiJd0-2yNt-9" value="Медиафайлы" style="ellipse;shape=cloud;whiteSpace=wrap;html=1;" parent="YbVzIjHWIAAiJd0-2yNt-7" vertex="1">
          <mxGeometry x="40" y="30" width="120" height="80" as="geometry" />
        </mxCell>
        <mxCell id="YbVzIjHWIAAiJd0-2yNt-11" value="Здесь хранятся изображения, видео и аудиофайлы озвучки" style="text;html=1;align=center;verticalAlign=middle;whiteSpace=wrap;rounded=0;" parent="YbVzIjHWIAAiJd0-2yNt-7" vertex="1">
          <mxGeometry x="20" y="130" width="170" height="30" as="geometry" />
        </mxCell>
        <mxCell id="YbVzIjHWIAAiJd0-2yNt-17" value="API&amp;nbsp; Статистики" style="swimlane;whiteSpace=wrap;html=1;startSize=30;" parent="G9CLyLBNerquvoPNeNlz-1" vertex="1">
          <mxGeometry x="680" y="338" width="200" height="130" as="geometry" />
        </mxCell>
        <mxCell id="YbVzIjHWIAAiJd0-2yNt-18" value="&lt;div style=&quot;font-family: Consolas, &amp;quot;Courier New&amp;quot;, monospace; font-size: 14px; line-height: 19px;&quot;&gt;Card.StatisticApi&lt;/div&gt;" style="rounded=1;whiteSpace=wrap;html=1;fontColor=default;labelBackgroundColor=default;" parent="YbVzIjHWIAAiJd0-2yNt-17" vertex="1">
          <mxGeometry x="30" y="60" width="140" height="60" as="geometry" />
        </mxCell>
        <mxCell id="YbVzIjHWIAAiJd0-2yNt-19" value="gRPC" style="text;html=1;align=center;verticalAlign=middle;whiteSpace=wrap;rounded=0;" parent="YbVzIjHWIAAiJd0-2yNt-17" vertex="1">
          <mxGeometry x="70" y="30" width="60" height="30" as="geometry" />
        </mxCell>
        <mxCell id="YbVzIjHWIAAiJd0-2yNt-20" value="" style="endArrow=classic;startArrow=classic;html=1;rounded=0;exitX=0.5;exitY=0;exitDx=0;exitDy=0;" parent="G9CLyLBNerquvoPNeNlz-1" source="YbVzIjHWIAAiJd0-2yNt-17" edge="1">
          <mxGeometry width="50" height="50" relative="1" as="geometry">
            <mxPoint x="999.41" y="323" as="sourcePoint" />
            <mxPoint x="780" y="250" as="targetPoint" />
          </mxGeometry>
        </mxCell>
        <mxCell id="YbVzIjHWIAAiJd0-2yNt-21" value="gRPC" style="edgeLabel;html=1;align=center;verticalAlign=middle;resizable=0;points=[];" parent="YbVzIjHWIAAiJd0-2yNt-20" vertex="1" connectable="0">
          <mxGeometry x="-0.0082" y="2" relative="1" as="geometry">
            <mxPoint x="2" y="-1" as="offset" />
          </mxGeometry>
        </mxCell>
        <mxCell id="YbVzIjHWIAAiJd0-2yNt-22" value="" style="shape=flexArrow;endArrow=classic;html=1;rounded=0;exitX=0.5;exitY=1;exitDx=0;exitDy=0;" parent="G9CLyLBNerquvoPNeNlz-1" source="YbVzIjHWIAAiJd0-2yNt-17" edge="1">
          <mxGeometry width="50" height="50" relative="1" as="geometry">
            <mxPoint x="820" y="540" as="sourcePoint" />
            <mxPoint x="805" y="590" as="targetPoint" />
          </mxGeometry>
        </mxCell>
        <mxCell id="YbVzIjHWIAAiJd0-2yNt-23" value="Пока не ясно к чему&lt;br&gt;будет обращаться это API&lt;br&gt;Надо доработать в процессе..." style="edgeLabel;html=1;align=center;verticalAlign=middle;resizable=0;points=[];" parent="YbVzIjHWIAAiJd0-2yNt-22" vertex="1" connectable="0">
          <mxGeometry x="-0.1962" y="-4" relative="1" as="geometry">
            <mxPoint y="-1" as="offset" />
          </mxGeometry>
        </mxCell>
        <mxCell id="G9CLyLBNerquvoPNeNlz-14" value="" style="verticalLabelPosition=bottom;html=1;verticalAlign=top;align=center;strokeColor=none;fillColor=#00BEF2;shape=mxgraph.azure.user;" parent="1" vertex="1">
          <mxGeometry x="366" y="140" width="47.5" height="50" as="geometry" />
        </mxCell>
        <mxCell id="G9CLyLBNerquvoPNeNlz-16" value="Browser" style="rounded=1;whiteSpace=wrap;html=1;" parent="1" vertex="1">
          <mxGeometry x="329.75" y="190" width="120" height="30" as="geometry" />
        </mxCell>
        <mxCell id="G9CLyLBNerquvoPNeNlz-17" value="" style="endArrow=classic;startArrow=classic;html=1;rounded=0;exitX=0.5;exitY=0;exitDx=0;exitDy=0;" parent="1" source="G9CLyLBNerquvoPNeNlz-73" target="G9CLyLBNerquvoPNeNlz-16" edge="1">
          <mxGeometry width="50" height="50" relative="1" as="geometry">
            <mxPoint x="760" y="290" as="sourcePoint" />
            <mxPoint x="440" y="280" as="targetPoint" />
          </mxGeometry>
        </mxCell>
        <mxCell id="G9CLyLBNerquvoPNeNlz-32" value="Любые сторонние приложения" style="swimlane;whiteSpace=wrap;html=1;startSize=30;" parent="1" vertex="1">
          <mxGeometry x="1410" y="200" width="180" height="70" as="geometry" />
        </mxCell>
        <mxCell id="G9CLyLBNerquvoPNeNlz-30" value="" style="endArrow=classic;startArrow=classic;html=1;rounded=0;exitX=0.5;exitY=0;exitDx=0;exitDy=0;entryX=0.5;entryY=1;entryDx=0;entryDy=0;" parent="1" source="G9CLyLBNerquvoPNeNlz-37" target="G9CLyLBNerquvoPNeNlz-32" edge="1">
          <mxGeometry width="50" height="50" relative="1" as="geometry">
            <mxPoint x="1120" y="640" as="sourcePoint" />
            <mxPoint x="930" y="280" as="targetPoint" />
          </mxGeometry>
        </mxCell>
        <mxCell id="G9CLyLBNerquvoPNeNlz-43" value="Сторонний сервис &lt;br&gt;синтеза речи" style="swimlane;whiteSpace=wrap;html=1;startSize=40;" parent="1" vertex="1">
          <mxGeometry x="-330" y="688" width="200" height="130" as="geometry">
            <mxRectangle x="130" y="220" width="200" height="30" as="alternateBounds" />
          </mxGeometry>
        </mxCell>
        <mxCell id="G9CLyLBNerquvoPNeNlz-44" value="&lt;div style=&quot;font-family: Consolas, &amp;quot;Courier New&amp;quot;, monospace; font-size: 14px; line-height: 19px;&quot;&gt;&lt;div style=&quot;line-height: 19px;&quot;&gt;TTS&lt;/div&gt;&lt;/div&gt;" style="rounded=1;whiteSpace=wrap;html=1;fontColor=default;labelBackgroundColor=default;" parent="G9CLyLBNerquvoPNeNlz-43" vertex="1">
          <mxGeometry x="40" y="60" width="120" height="60" as="geometry" />
        </mxCell>
        <mxCell id="G9CLyLBNerquvoPNeNlz-56" value="" style="endArrow=none;startArrow=classic;html=1;rounded=0;exitX=1;exitY=0.5;exitDx=0;exitDy=0;endFill=0;entryX=0;entryY=0.5;entryDx=0;entryDy=0;" parent="1" source="G9CLyLBNerquvoPNeNlz-43" target="G9CLyLBNerquvoPNeNlz-40" edge="1">
          <mxGeometry width="50" height="50" relative="1" as="geometry">
            <mxPoint x="-160" y="738" as="sourcePoint" />
            <mxPoint x="60" y="688" as="targetPoint" />
          </mxGeometry>
        </mxCell>
        <mxCell id="G9CLyLBNerquvoPNeNlz-57" value="Запросы&lt;br&gt;на синтез звука&lt;br&gt;&lt;br&gt;В зависимости&amp;nbsp;&lt;br&gt;от источника любой&lt;br&gt;вариант запроса (REST, &lt;br&gt;JS-либы)" style="edgeLabel;html=1;align=center;verticalAlign=middle;resizable=0;points=[];" parent="G9CLyLBNerquvoPNeNlz-56" vertex="1" connectable="0">
          <mxGeometry x="0.01" y="1" relative="1" as="geometry">
            <mxPoint as="offset" />
          </mxGeometry>
        </mxCell>
        <mxCell id="G9CLyLBNerquvoPNeNlz-72" value="Развертываемая часть" style="text;html=1;align=center;verticalAlign=middle;whiteSpace=wrap;rounded=0;fontSize=48;" parent="1" vertex="1">
          <mxGeometry x="-130" y="320" width="220" height="30" as="geometry" />
        </mxCell>
        <mxCell id="YbVzIjHWIAAiJd0-2yNt-8" value="" style="endArrow=classic;startArrow=classic;html=1;rounded=0;exitX=0.5;exitY=0;exitDx=0;exitDy=0;" parent="1" source="YbVzIjHWIAAiJd0-2yNt-7" edge="1">
          <mxGeometry width="50" height="50" relative="1" as="geometry">
            <mxPoint x="360" y="1040" as="sourcePoint" />
            <mxPoint x="380" y="820" as="targetPoint" />
          </mxGeometry>
        </mxCell>
        <mxCell id="YbVzIjHWIAAiJd0-2yNt-15" value="" style="shape=flexArrow;endArrow=classic;html=1;rounded=0;exitX=0;exitY=0.5;exitDx=0;exitDy=0;" parent="1" source="G9CLyLBNerquvoPNeNlz-37" edge="1">
          <mxGeometry width="50" height="50" relative="1" as="geometry">
            <mxPoint x="560" y="850" as="sourcePoint" />
            <mxPoint x="1200" y="753" as="targetPoint" />
          </mxGeometry>
        </mxCell>
        <mxCell id="YbVzIjHWIAAiJd0-2yNt-16" value="gRPC&lt;br&gt;ко всем API" style="edgeLabel;html=1;align=center;verticalAlign=middle;resizable=0;points=[];" parent="YbVzIjHWIAAiJd0-2yNt-15" vertex="1" connectable="0">
          <mxGeometry x="-0.0229" y="-5" relative="1" as="geometry">
            <mxPoint as="offset" />
          </mxGeometry>
        </mxCell>
      </root>
    </mxGraphModel>
  </diagram>
</mxfile>
